<svg width="64" height="64" viewBox="0 0 64 64" fill="none" xmlns="http://www.w3.org/2000/svg">
<path d="M24.4063 26.7494L24.0504 22.5789C23.9508 21.4112 24.8719 20.4085 26.0438 20.4088L45.5027 20.415C46.5397 20.4154 47.405 19.623 47.4957 18.59L47.6817 16.4717C47.7844 15.3027 46.8633 14.297 45.6899 14.2967L19.3114 14.2903C18.1381 14.29 17.2166 15.295 17.3184 16.4639L18.5986 31.1537C18.6887 32.1871 19.5538 32.9801 20.5911 32.9801H37.8532C39.0326 32.9801 39.9559 33.9954 39.8443 35.1694L39.4227 39.6029C39.3442 40.4288 38.7639 41.1205 37.9643 41.3414L33.0321 42.7039C32.685 42.7998 32.3184 42.8002 31.9711 42.7051L26.9469 41.3286C26.141 41.1078 25.5572 40.4093 25.4832 39.577L25.3304 37.8602C25.2386 36.8284 24.3742 36.0374 23.3383 36.0374H21.2442C20.0775 36.0374 19.1584 37.032 19.2504 38.1951L19.7379 44.36C19.8046 45.2047 20.3964 45.9156 21.2149 46.1345L31.9824 49.014C32.3214 49.1046 32.6783 49.1045 33.0172 49.0136L43.7043 46.1474C44.5136 45.9303 45.1018 45.2317 45.1779 44.3973L46.5879 28.9347C46.6947 27.7633 45.7724 26.7531 44.5961 26.7531H24.41C24.408 26.7531 24.4063 26.7514 24.4063 26.7494ZM8.19319 6.1768C8.08938 5.00704 9.011 4 10.1854 4H54.8148C55.989 4 56.9106 5.0068 56.807 6.17643L52.6655 52.9413C52.5923 53.7678 52.0162 54.4634 51.2178 54.6893L32.9936 59.8455C32.6366 59.9465 32.2585 59.9462 31.9016 59.8446L13.7883 54.6888C12.9914 54.462 12.4169 53.7673 12.3436 52.942L8.19319 6.1768Z" fill="#E44D26"/>
</svg>
