<svg width="64" height="64" viewBox="0 0 64 64" fill="none" xmlns="http://www.w3.org/2000/svg">
<path d="M13.3333 32V13.3334C13.3333 11.8606 14.5271 10.6667 15.9999 10.6667C17.4727 10.6667 18.6665 11.8606 18.6665 13.3334V32C18.6665 33.4728 17.4727 34.6667 15.9999 34.6667C14.5271 34.6667 13.3333 33.4728 13.3333 32Z" fill="#EAB308"/>
<path d="M29.3333 21.3334V13.3334C29.3333 11.8606 30.5271 10.6667 31.9999 10.6667C33.4727 10.6667 34.6665 11.8606 34.6665 13.3334V21.3334C34.6665 22.8061 33.4727 24 31.9999 24C30.5271 24 29.3333 22.8061 29.3333 21.3334Z" fill="#EAB308"/>
<path d="M13.3333 50.6666V42.6666C13.3333 41.1939 14.5271 40 15.9999 40C17.4727 40 18.6665 41.1939 18.6665 42.6666V50.6666C18.6665 52.1394 17.4727 53.3333 15.9999 53.3333C14.5271 53.3333 13.3333 52.1394 13.3333 50.6666Z" fill="#EAB308"/>
<path d="M45.3333 50.6667V45.3334C45.3333 43.8606 46.5271 42.6667 47.9999 42.6667C49.4727 42.6667 50.6665 43.8606 50.6665 45.3334V50.6667C50.6665 52.1395 49.4726 53.3334 47.9999 53.3334C46.5271 53.3334 45.3333 52.1395 45.3333 50.6667Z" fill="#EAB308"/>
<path d="M29.3333 50.6665V31.9999C29.3333 30.5271 30.5271 29.3333 31.9999 29.3333C33.4727 29.3333 34.6665 30.5271 34.6665 31.9999V50.6665C34.6665 52.1393 33.4727 53.3333 31.9999 53.3333C30.5271 53.3333 29.3333 52.1393 29.3333 50.6665Z" fill="#EAB308"/>
<path d="M37.3333 18.6667C38.806 18.6667 40 19.8606 40 21.3334C40 22.8061 38.806 24 37.3333 24H26.6666C25.1939 24 24 22.8061 24 21.3334C24 19.8606 25.1939 18.6667 26.6666 18.6667H37.3333Z" fill="#EAB308"/>
<path d="M21.3333 40C22.806 40 24 41.1939 24 42.6666C24 44.1394 22.806 45.3333 21.3333 45.3333H10.6666C9.19388 45.3333 8 44.1394 8 42.6666C8 41.1939 9.19388 40 10.6666 40H21.3333Z" fill="#EAB308"/>
<path d="M53.3333 42.6667C54.806 42.6667 56 43.8606 56 45.3334C56 46.8061 54.806 48 53.3333 48H42.6666C41.1939 48 40 46.8061 40 45.3334C40 43.8606 41.1939 42.6667 42.6666 42.6667H53.3333Z" fill="#EAB308"/>
<path d="M45.3333 34.6667V13.3334C45.3333 11.8606 46.5271 10.6667 47.9999 10.6667C49.4727 10.6667 50.6665 11.8606 50.6665 13.3334V34.6667C50.6665 36.1395 49.4726 37.3334 47.9999 37.3334C46.5271 37.3334 45.3333 36.1395 45.3333 34.6667Z" fill="#EAB308"/>
</svg>
