<svg width="640" height="176" viewBox="0 0 640 176" fill="none" xmlns="http://www.w3.org/2000/svg">
<path d="M0 12C0 5.37258 5.37258 0 12 0H628C634.627 0 640 5.37258 640 12V164C640 170.627 634.627 176 628 176H12C5.37259 176 0 170.627 0 164V12Z" fill="url(#paint0_linear_29_35)"/>
<path d="M226.638 81.5498C224.073 79.1957 223.325 74.2498 224.393 70.6667C226.246 72.9257 228.813 73.6416 231.472 74.0451C235.577 74.6687 239.609 74.4356 243.422 72.5517C243.858 72.3363 244.261 72.049 244.738 71.7589C245.096 72.8008 245.189 73.853 245.064 74.9241C244.76 77.5324 243.467 79.5473 241.411 81.0744C240.589 81.6854 239.719 82.2315 238.87 82.8077C236.261 84.5776 235.555 86.6535 236.535 89.6734C236.559 89.7469 236.579 89.8205 236.632 90C235.3 89.4015 234.327 88.53 233.586 87.3843C232.803 86.1747 232.43 84.8369 232.411 83.3897C232.401 82.6852 232.401 81.9744 232.307 81.2801C232.076 79.5872 231.285 78.8291 229.793 78.7853C228.263 78.7408 227.052 79.6904 226.731 81.1867C226.707 81.3012 226.671 81.4147 226.636 81.548L226.638 81.5498Z" fill="url(#paint1_linear_29_35)"/>
<path d="M212 70.0694C212 70.0694 219.594 66.3551 227.21 66.3551L232.952 48.5128C233.167 47.65 233.795 47.0635 234.503 47.0635C235.212 47.0635 235.84 47.65 236.055 48.5128L241.797 66.3551C250.816 66.3551 257.007 70.0694 257.007 70.0694C257.007 70.0694 244.107 34.7858 244.082 34.715C243.712 33.6719 243.087 33 242.244 33H226.764C225.922 33 225.322 33.6719 224.926 34.715C224.899 34.7845 212 70.0694 212 70.0694Z" fill="white"/>
<path d="M292.071 58.72C292.071 61.8465 288.198 63.7138 282.834 63.7138C279.344 63.7138 278.109 62.8453 278.109 61.0215C278.109 59.1108 279.642 58.1989 283.132 58.1989C286.282 58.1989 288.963 58.2423 292.071 58.6331V58.72ZM292.114 54.8552C290.198 54.4209 287.303 54.1604 283.856 54.1604C273.81 54.1604 269.086 56.5487 269.086 62.1071C269.086 67.8826 272.32 70.0974 279.812 70.0974C286.154 70.0974 290.453 68.4906 292.028 64.5389H292.283C292.241 65.4943 292.199 66.4496 292.199 67.1878C292.199 69.2288 292.539 69.4025 294.199 69.4025H302.031C301.605 68.1866 301.35 64.756 301.35 61.8031C301.35 58.6331 301.477 56.2448 301.477 53.0313C301.477 46.4742 297.562 42.3054 285.303 42.3054C280.025 42.3054 274.151 43.2173 269.682 44.5635C270.107 46.3439 270.703 49.9481 271.001 52.2931C274.875 50.4692 280.365 49.6876 284.622 49.6876C290.496 49.6876 292.114 51.0338 292.114 53.7695V54.8552Z" fill="white"/>
<path d="M313.603 60.5438C312.539 60.674 311.091 60.674 309.602 60.674C308.027 60.674 306.58 60.6306 305.6 60.5003C305.6 60.8478 305.558 61.2386 305.558 61.586C305.558 67.0141 309.091 70.184 321.52 70.184C333.225 70.184 337.013 67.0575 337.013 61.5425C337.013 56.3315 334.502 53.7695 323.393 53.205C314.752 52.8141 313.986 51.8588 313.986 50.7732C313.986 49.5139 315.093 48.8625 320.881 48.8625C326.883 48.8625 328.501 49.6876 328.501 51.4246V51.8154C329.352 51.7719 330.884 51.7286 332.459 51.7286C333.949 51.7286 335.566 51.7719 336.503 51.8588C336.503 51.468 336.546 51.1206 336.546 50.8166C336.546 44.4331 331.267 42.3488 321.052 42.3488C309.559 42.3488 305.686 45.1714 305.686 50.6863C305.686 55.6368 308.793 58.7199 319.818 59.1976C327.947 59.4582 328.841 60.3701 328.841 61.6294C328.841 62.9756 327.522 63.5835 321.818 63.5835C315.263 63.5835 313.603 62.6716 313.603 60.8043V60.5438Z" fill="white"/>
<path d="M351.063 37.6591C347.956 40.5686 342.38 43.478 339.273 44.2597C339.315 45.8664 339.315 48.8193 339.315 50.426L342.167 50.4694C342.124 53.5526 342.082 57.2871 342.082 59.7623C342.082 65.5378 345.104 69.8804 354.511 69.8804C358.469 69.8804 361.108 69.4461 364.386 68.7513C364.045 66.6234 363.662 63.3666 363.534 60.8914C361.577 61.5427 359.108 61.8901 356.383 61.8901C352.595 61.8901 351.063 60.848 351.063 57.8516C351.063 55.2462 351.063 52.8143 351.105 50.5563C355.958 50.5997 360.81 50.6865 363.662 50.7734C363.619 48.5153 363.705 45.2584 363.832 43.0872C359.704 43.174 355.064 43.2175 351.233 43.2175C351.276 41.3068 351.318 39.4829 351.361 37.6591H351.063Z" fill="white"/>
<path d="M376.485 49.1231C376.527 46.865 376.57 44.9544 376.613 43.087H368.057C368.184 46.8216 368.184 50.643 368.184 56.2448C368.184 61.8466 368.142 65.7114 368.057 69.4025H377.847C377.676 66.797 377.634 62.4111 377.634 58.6766C377.634 52.7708 380.018 51.0772 385.423 51.0772C387.935 51.0772 389.723 51.3812 391.297 51.9457C391.34 49.7311 391.766 45.432 392.021 43.5213C390.403 43.0437 388.616 42.7397 386.445 42.7397C381.805 42.6962 378.4 44.6069 376.825 49.1665L376.485 49.1231Z" fill="white"/>
<path d="M419.104 56.071C419.104 60.8043 415.699 63.019 410.336 63.019C405.015 63.019 401.61 60.9346 401.61 56.071C401.61 51.2074 405.058 49.3836 410.336 49.3836C415.656 49.3836 419.104 51.3377 419.104 56.071ZM428 55.8539C428 46.4307 420.679 42.2185 410.336 42.2185C399.95 42.2185 392.885 46.4307 392.885 55.8539C392.885 65.2337 399.482 70.2712 410.293 70.2712C421.19 70.2712 428 65.2337 428 55.8539Z" fill="white"/>
<path d="M169.703 121.875L169.618 120.875C169.518 119.707 170.439 118.704 171.611 118.705L179.766 118.707C180.559 118.708 181.221 118.102 181.29 117.312C181.369 116.418 180.664 115.648 179.767 115.648L168.247 115.645C167.074 115.645 166.152 116.65 166.254 117.819L166.72 123.164C166.81 124.197 167.675 124.99 168.712 124.99H175.327C176.506 124.99 177.43 126.005 177.318 127.179L177.277 127.616C177.198 128.442 176.618 129.133 175.818 129.354L174.281 129.779C173.934 129.875 173.568 129.875 173.22 129.78L171.332 129.263C170.714 129.093 170.265 128.553 170.208 127.914C170.138 127.127 169.479 126.519 168.689 126.519C167.8 126.519 167.1 127.277 167.17 128.163L167.313 129.975C167.38 130.82 167.972 131.531 168.79 131.75L173.233 132.938C173.571 133.028 173.928 133.028 174.267 132.937L178.679 131.754C179.488 131.537 180.076 130.839 180.152 130.004L180.694 124.058C180.801 122.887 179.879 121.877 178.703 121.877H169.705C169.704 121.877 169.703 121.876 169.703 121.875ZM161.693 112.677C161.589 111.507 162.511 110.5 163.685 110.5H183.815C184.989 110.5 185.911 111.507 185.807 112.676L183.894 134.284C183.82 135.111 183.244 135.806 182.446 136.032L174.27 138.345C173.913 138.446 173.535 138.446 173.178 138.345L165.056 136.033C164.259 135.806 163.684 135.111 163.611 134.286L161.693 112.677Z" fill="#E44D26"/>
<path d="M215.232 136H210.223L217.856 113.891H223.88L231.501 136H226.492L220.954 118.943H220.781L215.232 136ZM214.919 127.31H226.751V130.959H214.919V127.31ZM247.487 124.147L243.276 124.406C243.204 124.046 243.05 123.722 242.812 123.434C242.575 123.139 242.262 122.905 241.873 122.732C241.491 122.552 241.034 122.463 240.502 122.463C239.789 122.463 239.188 122.614 238.699 122.916C238.21 123.211 237.965 123.607 237.965 124.103C237.965 124.499 238.123 124.834 238.44 125.107C238.757 125.381 239.3 125.6 240.07 125.766L243.071 126.37C244.683 126.702 245.885 127.234 246.677 127.968C247.469 128.702 247.864 129.667 247.864 130.861C247.864 131.948 247.544 132.902 246.904 133.722C246.27 134.543 245.399 135.183 244.291 135.644C243.19 136.097 241.92 136.324 240.48 136.324C238.285 136.324 236.536 135.867 235.234 134.953C233.938 134.032 233.179 132.779 232.956 131.196L237.479 130.959C237.616 131.628 237.947 132.139 238.472 132.491C238.998 132.837 239.671 133.01 240.491 133.01C241.297 133.01 241.945 132.855 242.434 132.545C242.931 132.229 243.183 131.822 243.19 131.326C243.183 130.908 243.006 130.566 242.661 130.3C242.315 130.027 241.783 129.818 241.063 129.674L238.192 129.102C236.572 128.778 235.367 128.216 234.575 127.418C233.791 126.619 233.398 125.6 233.398 124.363C233.398 123.297 233.686 122.38 234.262 121.61C234.845 120.84 235.662 120.246 236.713 119.828C237.771 119.411 239.008 119.202 240.426 119.202C242.521 119.202 244.169 119.645 245.371 120.53C246.58 121.415 247.285 122.621 247.487 124.147ZM259.58 119.418V122.873H249.594V119.418H259.58ZM251.861 115.445H256.46V130.905C256.46 131.329 256.525 131.66 256.655 131.898C256.784 132.128 256.964 132.29 257.194 132.384C257.432 132.477 257.705 132.524 258.015 132.524C258.231 132.524 258.447 132.506 258.662 132.47C258.878 132.427 259.044 132.394 259.159 132.373L259.882 135.795C259.652 135.867 259.328 135.95 258.911 136.043C258.493 136.144 257.986 136.205 257.389 136.227C256.28 136.27 255.309 136.122 254.474 135.784C253.646 135.446 253.002 134.92 252.541 134.208C252.081 133.495 251.854 132.596 251.861 131.509V115.445ZM262.576 136V119.418H267.034V122.311H267.207C267.509 121.282 268.017 120.505 268.729 119.98C269.442 119.447 270.262 119.181 271.191 119.181C271.421 119.181 271.669 119.195 271.936 119.224C272.202 119.253 272.436 119.292 272.637 119.343V123.423C272.421 123.359 272.123 123.301 271.741 123.251C271.36 123.2 271.011 123.175 270.694 123.175C270.018 123.175 269.413 123.323 268.88 123.618C268.355 123.905 267.938 124.309 267.628 124.827C267.326 125.345 267.175 125.942 267.175 126.619V136H262.576ZM281.735 136.324C280.058 136.324 278.608 135.968 277.385 135.255C276.168 134.535 275.229 133.535 274.567 132.254C273.905 130.966 273.574 129.472 273.574 127.774C273.574 126.061 273.905 124.564 274.567 123.283C275.229 121.995 276.168 120.994 277.385 120.282C278.608 119.562 280.058 119.202 281.735 119.202C283.412 119.202 284.859 119.562 286.075 120.282C287.298 120.994 288.241 121.995 288.903 123.283C289.565 124.564 289.896 126.061 289.896 127.774C289.896 129.472 289.565 130.966 288.903 132.254C288.241 133.535 287.298 134.535 286.075 135.255C284.859 135.968 283.412 136.324 281.735 136.324ZM281.757 132.761C282.52 132.761 283.156 132.545 283.667 132.114C284.178 131.675 284.563 131.077 284.823 130.322C285.089 129.566 285.222 128.706 285.222 127.741C285.222 126.777 285.089 125.917 284.823 125.161C284.563 124.406 284.178 123.808 283.667 123.369C283.156 122.93 282.52 122.711 281.757 122.711C280.987 122.711 280.339 122.93 279.813 123.369C279.295 123.808 278.903 124.406 278.637 125.161C278.378 125.917 278.248 126.777 278.248 127.741C278.248 128.706 278.378 129.566 278.637 130.322C278.903 131.077 279.295 131.675 279.813 132.114C280.339 132.545 280.987 132.761 281.757 132.761ZM299.923 136V119.418H304.306V122.344H304.5C304.845 121.372 305.421 120.606 306.227 120.044C307.033 119.483 307.998 119.202 309.12 119.202C310.258 119.202 311.226 119.487 312.024 120.055C312.823 120.616 313.356 121.379 313.622 122.344H313.795C314.133 121.394 314.745 120.634 315.63 120.066C316.523 119.49 317.577 119.202 318.793 119.202C320.341 119.202 321.596 119.695 322.561 120.681C323.532 121.66 324.018 123.049 324.018 124.848V136H319.43V125.755C319.43 124.834 319.185 124.143 318.696 123.682C318.207 123.222 317.595 122.991 316.861 122.991C316.026 122.991 315.375 123.258 314.907 123.79C314.439 124.316 314.205 125.01 314.205 125.874V136H309.747V125.658C309.747 124.845 309.513 124.197 309.045 123.715C308.584 123.233 307.976 122.991 307.22 122.991C306.709 122.991 306.249 123.121 305.839 123.38C305.436 123.632 305.115 123.988 304.878 124.449C304.64 124.902 304.522 125.435 304.522 126.047V136H299.923ZM335.208 136.324C333.502 136.324 332.034 135.978 330.803 135.288C329.58 134.589 328.637 133.603 327.975 132.33C327.313 131.048 326.982 129.534 326.982 127.785C326.982 126.079 327.313 124.582 327.975 123.294C328.637 122.005 329.569 121.002 330.771 120.282C331.98 119.562 333.398 119.202 335.024 119.202C336.118 119.202 337.136 119.379 338.079 119.731C339.029 120.077 339.857 120.598 340.562 121.297C341.275 121.995 341.829 122.873 342.225 123.931C342.621 124.981 342.818 126.212 342.818 127.623V128.886H328.817V126.036H338.489C338.489 125.374 338.346 124.787 338.058 124.276C337.77 123.765 337.37 123.366 336.859 123.078C336.356 122.783 335.769 122.635 335.1 122.635C334.402 122.635 333.783 122.797 333.243 123.121C332.71 123.438 332.293 123.866 331.991 124.406C331.688 124.938 331.534 125.532 331.526 126.187V128.897C331.526 129.717 331.678 130.426 331.98 131.023C332.289 131.621 332.725 132.081 333.286 132.405C333.847 132.729 334.513 132.891 335.283 132.891C335.794 132.891 336.262 132.819 336.687 132.675C337.111 132.531 337.475 132.315 337.777 132.027C338.079 131.739 338.31 131.387 338.468 130.969L342.721 131.25C342.505 132.272 342.063 133.164 341.393 133.927C340.731 134.683 339.875 135.273 338.824 135.698C337.781 136.115 336.575 136.324 335.208 136.324ZM354.639 119.418V122.873H344.654V119.418H354.639ZM346.921 115.445H351.52V130.905C351.52 131.329 351.584 131.66 351.714 131.898C351.843 132.128 352.023 132.29 352.254 132.384C352.491 132.477 352.765 132.524 353.074 132.524C353.29 132.524 353.506 132.506 353.722 132.47C353.938 132.427 354.103 132.394 354.218 132.373L354.942 135.795C354.711 135.867 354.388 135.95 353.97 136.043C353.553 136.144 353.045 136.205 352.448 136.227C351.34 136.27 350.368 136.122 349.533 135.784C348.706 135.446 348.061 134.92 347.601 134.208C347.14 133.495 346.914 132.596 346.921 131.509V115.445ZM362.364 136.313C361.306 136.313 360.363 136.13 359.535 135.763C358.708 135.388 358.053 134.838 357.57 134.111C357.095 133.377 356.858 132.463 356.858 131.369C356.858 130.448 357.027 129.674 357.365 129.048C357.704 128.422 358.164 127.918 358.747 127.536C359.33 127.155 359.992 126.867 360.734 126.673C361.482 126.478 362.266 126.342 363.087 126.263C364.051 126.162 364.829 126.068 365.419 125.982C366.009 125.888 366.437 125.752 366.703 125.572C366.97 125.392 367.103 125.125 367.103 124.773V124.708C367.103 124.024 366.887 123.495 366.455 123.121C366.03 122.747 365.426 122.56 364.641 122.56C363.814 122.56 363.155 122.743 362.666 123.11C362.177 123.47 361.853 123.923 361.694 124.47L357.441 124.125C357.657 123.117 358.081 122.247 358.715 121.513C359.348 120.771 360.165 120.203 361.165 119.807C362.173 119.404 363.339 119.202 364.663 119.202C365.584 119.202 366.466 119.31 367.308 119.526C368.157 119.742 368.909 120.077 369.564 120.53C370.226 120.984 370.748 121.566 371.13 122.279C371.511 122.984 371.702 123.83 371.702 124.816V136H367.34V133.701H367.211C366.945 134.219 366.588 134.676 366.142 135.072C365.696 135.46 365.16 135.766 364.534 135.989C363.907 136.205 363.184 136.313 362.364 136.313ZM363.681 133.139C364.357 133.139 364.955 133.006 365.473 132.74C365.991 132.466 366.398 132.099 366.693 131.639C366.988 131.178 367.135 130.656 367.135 130.073V128.314C366.991 128.407 366.793 128.494 366.541 128.573C366.297 128.645 366.02 128.713 365.71 128.778C365.401 128.835 365.091 128.889 364.782 128.94C364.472 128.983 364.192 129.023 363.94 129.059C363.4 129.138 362.929 129.264 362.526 129.436C362.123 129.609 361.809 129.843 361.586 130.138C361.363 130.426 361.252 130.786 361.252 131.218C361.252 131.844 361.478 132.322 361.932 132.653C362.392 132.977 362.975 133.139 363.681 133.139ZM389.862 136.324C388.157 136.324 386.688 135.978 385.458 135.288C384.234 134.589 383.292 133.603 382.629 132.33C381.967 131.048 381.636 129.534 381.636 127.785C381.636 126.079 381.967 124.582 382.629 123.294C383.292 122.005 384.224 121.002 385.425 120.282C386.635 119.562 388.052 119.202 389.679 119.202C390.773 119.202 391.791 119.379 392.734 119.731C393.684 120.077 394.512 120.598 395.217 121.297C395.929 121.995 396.484 122.873 396.879 123.931C397.275 124.981 397.473 126.212 397.473 127.623V128.886H383.471V126.036H393.144C393.144 125.374 393 124.787 392.712 124.276C392.424 123.765 392.025 123.366 391.514 123.078C391.01 122.783 390.424 122.635 389.754 122.635C389.056 122.635 388.437 122.797 387.898 123.121C387.365 123.438 386.948 123.866 386.645 124.406C386.343 124.938 386.188 125.532 386.181 126.187V128.897C386.181 129.717 386.332 130.426 386.635 131.023C386.944 131.621 387.379 132.081 387.941 132.405C388.502 132.729 389.168 132.891 389.938 132.891C390.449 132.891 390.917 132.819 391.341 132.675C391.766 132.531 392.129 132.315 392.432 132.027C392.734 131.739 392.964 131.387 393.123 130.969L397.376 131.25C397.16 132.272 396.717 133.164 396.048 133.927C395.386 134.683 394.53 135.273 393.479 135.698C392.435 136.115 391.23 136.324 389.862 136.324ZM405.073 126.414V136H400.474V119.418H404.857V122.344H405.052C405.419 121.379 406.034 120.616 406.898 120.055C407.761 119.487 408.808 119.202 410.039 119.202C411.191 119.202 412.195 119.454 413.051 119.958C413.907 120.462 414.573 121.181 415.048 122.117C415.523 123.045 415.761 124.154 415.761 125.442V136H411.162V126.263C411.169 125.248 410.91 124.456 410.385 123.888C409.859 123.312 409.136 123.024 408.215 123.024C407.596 123.024 407.049 123.157 406.574 123.423C406.106 123.69 405.739 124.078 405.473 124.589C405.213 125.093 405.08 125.701 405.073 126.414ZM426.856 142.564C425.366 142.564 424.088 142.359 423.023 141.948C421.965 141.545 421.123 140.995 420.497 140.297C419.871 139.598 419.464 138.814 419.277 137.943L423.531 137.371C423.66 137.702 423.865 138.012 424.146 138.299C424.427 138.587 424.797 138.818 425.258 138.99C425.726 139.17 426.294 139.26 426.964 139.26C427.964 139.26 428.788 139.016 429.436 138.526C430.091 138.044 430.418 137.234 430.418 136.097V133.064H430.224C430.022 133.524 429.72 133.96 429.317 134.37C428.914 134.78 428.396 135.115 427.762 135.374C427.129 135.633 426.373 135.763 425.495 135.763C424.25 135.763 423.117 135.475 422.095 134.899C421.08 134.316 420.27 133.427 419.666 132.232C419.069 131.03 418.77 129.512 418.77 127.677C418.77 125.798 419.076 124.229 419.687 122.97C420.299 121.71 421.112 120.768 422.127 120.141C423.149 119.515 424.268 119.202 425.485 119.202C426.413 119.202 427.19 119.361 427.816 119.677C428.443 119.987 428.946 120.375 429.328 120.843C429.716 121.304 430.015 121.757 430.224 122.203H430.397V119.418H434.963V136.162C434.963 137.573 434.618 138.753 433.927 139.703C433.236 140.653 432.279 141.365 431.055 141.84C429.839 142.323 428.439 142.564 426.856 142.564ZM426.953 132.308C427.694 132.308 428.32 132.124 428.831 131.757C429.349 131.383 429.745 130.851 430.019 130.16C430.299 129.462 430.44 128.627 430.44 127.655C430.44 126.684 430.303 125.841 430.03 125.129C429.756 124.409 429.36 123.852 428.842 123.456C428.324 123.06 427.694 122.862 426.953 122.862C426.197 122.862 425.56 123.067 425.042 123.477C424.524 123.88 424.132 124.442 423.865 125.161C423.599 125.881 423.466 126.712 423.466 127.655C423.466 128.612 423.599 129.44 423.865 130.138C424.139 130.829 424.531 131.365 425.042 131.747C425.56 132.121 426.197 132.308 426.953 132.308ZM438.623 136V119.418H443.222V136H438.623ZM440.933 117.281C440.249 117.281 439.663 117.054 439.173 116.601C438.691 116.14 438.45 115.589 438.45 114.949C438.45 114.316 438.691 113.772 439.173 113.319C439.663 112.858 440.249 112.628 440.933 112.628C441.617 112.628 442.2 112.858 442.682 113.319C443.171 113.772 443.416 114.316 443.416 114.949C443.416 115.589 443.171 116.14 442.682 116.601C442.2 117.054 441.617 117.281 440.933 117.281ZM451.504 126.414V136H446.906V119.418H451.288V122.344H451.483C451.85 121.379 452.465 120.616 453.329 120.055C454.192 119.487 455.24 119.202 456.47 119.202C457.622 119.202 458.626 119.454 459.482 119.958C460.339 120.462 461.004 121.181 461.479 122.117C461.954 123.045 462.192 124.154 462.192 125.442V136H457.593V126.263C457.6 125.248 457.341 124.456 456.816 123.888C456.29 123.312 455.567 123.024 454.646 123.024C454.027 123.024 453.48 123.157 453.005 123.423C452.537 123.69 452.17 124.078 451.904 124.589C451.645 125.093 451.512 125.701 451.504 126.414ZM473.373 136.324C471.668 136.324 470.199 135.978 468.969 135.288C467.745 134.589 466.802 133.603 466.14 132.33C465.478 131.048 465.147 129.534 465.147 127.785C465.147 126.079 465.478 124.582 466.14 123.294C466.802 122.005 467.734 121.002 468.936 120.282C470.145 119.562 471.563 119.202 473.19 119.202C474.284 119.202 475.302 119.379 476.245 119.731C477.195 120.077 478.023 120.598 478.728 121.297C479.44 121.995 479.995 122.873 480.39 123.931C480.786 124.981 480.984 126.212 480.984 127.623V128.886H466.982V126.036H476.655C476.655 125.374 476.511 124.787 476.223 124.276C475.935 123.765 475.536 123.366 475.025 123.078C474.521 122.783 473.935 122.635 473.265 122.635C472.567 122.635 471.948 122.797 471.409 123.121C470.876 123.438 470.459 123.866 470.156 124.406C469.854 124.938 469.699 125.532 469.692 126.187V128.897C469.692 129.717 469.843 130.426 470.145 131.023C470.455 131.621 470.89 132.081 471.452 132.405C472.013 132.729 472.679 132.891 473.449 132.891C473.96 132.891 474.428 132.819 474.852 132.675C475.277 132.531 475.64 132.315 475.943 132.027C476.245 131.739 476.475 131.387 476.634 130.969L480.887 131.25C480.671 132.272 480.228 133.164 479.559 133.927C478.897 134.683 478.041 135.273 476.99 135.698C475.946 136.115 474.741 136.324 473.373 136.324Z" fill="white"/>
<defs>
<linearGradient id="paint0_linear_29_35" x1="0" y1="0" x2="604.091" y2="259.57" gradientUnits="userSpaceOnUse">
<stop stop-color="#171717"/>
<stop offset="1" stop-color="#262626"/>
</linearGradient>
<linearGradient id="paint1_linear_29_35" x1="223.922" y1="90" x2="248.723" y2="78.3295" gradientUnits="userSpaceOnUse">
<stop stop-color="#D83333"/>
<stop offset="1" stop-color="#F041FF"/>
</linearGradient>
</defs>
</svg>
